<svg width="160" height="161" viewBox="0 0 160 161" fill="none" xmlns="http://www.w3.org/2000/svg">
<path d="M55.1729 160.5H44.1377V154.982H55.1729V160.5ZM66.207 160.5H60.6895V154.982H66.207V160.5ZM82.7588 160.5H71.7246V154.982H82.7588V160.5ZM110.345 160.5H93.793V154.982H104.827V143.948H110.345V160.5ZM137.931 116.362H143.448V121.879H148.966V127.396H137.931V132.914H143.448V138.431H154.482V149.466H148.966V160.5H115.862V138.431H104.827V127.396H99.3105V121.879H93.793V110.845H99.3105V116.362H104.827V121.879H110.345V105.327H137.931V116.362ZM71.7246 154.982H66.207V149.466H71.7246V154.982ZM88.2754 154.982H82.7588V143.948H88.2754V154.982ZM121.379 154.982H126.896V149.466H121.379V154.982ZM132.414 154.982H137.931V149.466H132.414V154.982ZM160 154.982H154.482V149.466H160V154.982ZM66.207 143.948H60.6895V149.466H49.6553V138.431H66.207V143.948ZM104.827 143.948H99.3105V149.466H88.2764V143.948H93.793V138.431H104.827V143.948ZM88.2754 132.914H82.7588V143.948H71.7246V138.431H66.207V132.914H77.2412V127.396H88.2754V132.914ZM121.379 143.948H126.896V138.431H121.379V143.948ZM132.414 143.948H137.931V138.431H132.414V143.948ZM93.793 138.431H88.2764V127.396H93.793V138.431ZM66.207 132.914H55.1729V127.396H66.207V132.914ZM115.862 132.914H132.414V116.362H115.862V132.914ZM160 132.914H154.482V127.396H160V132.914ZM71.7246 127.396H66.207V121.879H71.7246V127.396ZM126.896 127.396H121.379V121.879H126.896V127.396ZM55.1729 105.327H60.6895V110.845H55.1729V116.362H60.6895V121.879H44.1377V116.362H49.6553V105.327H44.1377V99.8105H38.6211V94.293H55.1729V105.327ZM88.2754 116.362H82.7588V121.879H77.2412V110.845H88.2754V116.362ZM5.51758 99.8105H11.0342V105.327H5.51758V116.362H0V88.7754H5.51758V99.8105ZM27.5859 116.362H22.0693V110.845H27.5859V116.362ZM44.1377 116.362H33.1035V110.845H44.1377V116.362ZM66.207 116.362H60.6895V110.845H66.207V116.362ZM160 116.362H143.448V110.845H160V116.362ZM38.6211 105.327H33.1035V110.845H27.5859V105.327H22.0693V110.845H11.0342V105.327H16.5518V99.8105H38.6211V105.327ZM77.2412 110.845H66.207V105.327H77.2412V110.845ZM104.827 110.845H99.3105V105.327H104.827V110.845ZM66.207 105.327H60.6895V88.7754H66.207V105.327ZM88.2754 105.327H82.7588V99.8105H88.2754V105.327ZM104.827 83.2588H110.345V94.293H115.862V99.8105H110.345V105.327H104.827V99.8105H93.793V94.293H88.2764V88.7754H99.3105V83.2588H93.793V77.7412H104.827V83.2588ZM143.448 105.327H137.931V99.8105H143.448V105.327ZM132.414 83.2588H137.931V77.7412H148.966V94.293H160V105.327H154.482V99.8105H143.448V94.293H137.931V99.8105H121.379V94.293H126.896V77.7412H132.414V83.2588ZM82.7588 99.8105H71.7246V94.293H82.7588V99.8105ZM38.6211 94.293H22.0693V88.7754H38.6211V94.293ZM137.931 88.7754H132.414V94.293H137.931V88.7754H143.448V83.2588H137.931V88.7754ZM55.1729 61.1895H60.6895V77.7412H55.1729V83.2588H60.6895V88.7754H44.1377V77.7412H49.6553V72.2246H55.1729V66.707H49.6553V72.2246H44.1377V66.707H38.6211V72.2246H27.5859V61.1895H33.1035V66.707H38.6211V61.1895H33.1035V55.6729H55.1729V61.1895ZM88.2754 88.7754H82.7588V83.2588H88.2754V88.7754ZM160 88.7754H154.482V83.2588H160V88.7754ZM11.0342 83.2588H0V77.7412H11.0342V83.2588ZM27.5859 83.2588H22.0693V72.2246H27.5859V83.2588ZM38.6211 83.2588H33.1035V77.7412H38.6211V83.2588ZM115.862 72.2246H121.379V61.1895H132.414V72.2246H126.896V77.7412H121.379V83.2588H115.862V77.7412H104.827V66.707H110.345V61.1895H115.862V72.2246ZM16.5518 77.7412H11.0342V72.2246H16.5518V77.7412ZM44.1377 77.7412H38.6211V72.2246H44.1377V77.7412ZM93.793 77.7412H88.2764V66.707H93.793V77.7412ZM137.931 77.7412H132.414V72.2246H137.931V77.7412ZM160 77.7412H148.966V72.2246H154.482V66.707H160V77.7412ZM11.0342 72.2246H5.51758V66.707H11.0342V72.2246ZM77.2412 55.6729H88.2754V61.1895H77.2412V72.2246H71.7246V66.707H66.207V55.6729H71.7246V50.1553H77.2412V55.6729ZM88.2754 72.2246H82.7588V66.707H88.2754V72.2246ZM5.51758 66.707H0V61.1895H5.51758V66.707ZM16.5518 55.6729H27.5859V61.1895H16.5518V66.707H11.0342V61.1895H5.51758V55.6729H11.0342V50.1553H16.5518V55.6729ZM143.448 66.707H137.931V61.1895H143.448V66.707ZM93.793 44.6377H99.3105V50.1553H104.827V44.6377H110.345V55.6729H99.3105V61.1895H88.2764V33.6035H93.793V44.6377ZM5.51758 55.6729H0V44.6377H5.51758V55.6729ZM33.1035 55.6729H27.5859V50.1553H33.1035V55.6729ZM137.931 55.6729H126.896V50.1553H137.931V55.6729ZM154.482 55.6729H143.448V50.1553H137.931V44.6377H154.482V55.6729ZM38.6211 50.1553H33.1035V44.6377H38.6211V50.1553ZM49.6553 50.1553H44.1377V33.6035H49.6553V50.1553ZM60.6895 50.1553H55.1729V44.6377H60.6895V50.1553ZM126.896 50.1553H115.862V44.6377H126.896V50.1553ZM66.207 44.6377H60.6895V39.1211H66.207V44.6377ZM82.7588 39.1211H88.2754V44.6377H77.2412V33.6035H82.7588V39.1211ZM104.827 44.6377H99.3105V33.6035H104.827V44.6377ZM115.862 44.6377H110.345V28.0859H104.827V22.5693H110.345V6.01758H115.862V44.6377ZM60.6895 39.1211H55.1729V33.6035H60.6895V39.1211ZM71.7246 39.1211H66.207V28.0859H71.7246V39.1211ZM55.1729 11.5342H60.6895V6.01758H82.7588V11.5342H77.2412V17.0518H66.207V11.5342H60.6895V17.0518H55.1729V33.6035H49.6553V22.5693H44.1377V6.01758H55.1729V11.5342ZM88.2754 33.6035H82.7588V22.5693H88.2754V33.6035ZM99.3105 22.5693H93.793V28.0859H88.2764V17.0518H99.3105V22.5693ZM66.207 22.5693H60.6895V17.0518H66.207V22.5693ZM88.2754 17.0518H82.7588V11.5342H88.2754V17.0518ZM104.827 17.0518H99.3105V11.5342H104.827V17.0518ZM93.793 6.01758H99.3105V11.5342H88.2764V0.5H93.793V6.01758ZM60.6895 6.01758H55.1729V0.5H60.6895V6.01758ZM88.2754 6.01758H82.7588V0.5H88.2754V6.01758ZM104.827 6.01758H99.3105V0.5H104.827V6.01758Z" fill="white"/>
<path fill-rule="evenodd" clip-rule="evenodd" d="M5.7931 0.5H32.8276H38.6207V6.2931V33.3276V39.1207H32.8276H5.7931H0V33.3276V6.2931V0.5H5.7931ZM5.7931 33.3276H32.8276V6.2931H5.7931V33.3276Z" fill="white"/>
<path fill-rule="evenodd" clip-rule="evenodd" d="M127.172 0.5H154.207H160V6.2931V33.3276V39.1207H154.207H127.172H121.379V33.3276V6.2931V0.5H127.172ZM127.172 33.3276H154.207V6.2931H127.172V33.3276Z" fill="white"/>
<path fill-rule="evenodd" clip-rule="evenodd" d="M5.7931 121.879H32.8276H38.6207V127.672V154.707V160.5H32.8276H5.7931H0V154.707V127.672V121.879H5.7931ZM5.7931 154.707H32.8276V127.672H5.7931V154.707Z" fill="white"/>
<rect x="11.0345" y="11.5345" width="16.5517" height="16.5517" fill="white"/>
<rect x="132.414" y="11.5345" width="16.5517" height="16.5517" fill="white"/>
<rect x="11.0345" y="132.914" width="16.5517" height="16.5517" fill="white"/>
</svg>
